<svg xmlns="http://www.w3.org/2000/svg" viewBox="0 0 308.86 308.86"><defs><style>.cls-1{fill:#fff;}</style></defs><g id="Calque_2" data-name="Calque 2"><g id="Calque_1-2" data-name="Calque 1"><path id="etoile4" class="cls-1" d="M157.3,1.7l52.52,96a3.34,3.34,0,0,0,1.3,1.31l96,52.52a3.27,3.27,0,0,1,0,5.74l-96,52.52a3.38,3.38,0,0,0-1.3,1.3l-52.52,96a3.27,3.27,0,0,1-5.74,0L99,211.12a3.34,3.34,0,0,0-1.31-1.3L1.7,157.3a3.27,3.27,0,0,1,0-5.74L97.73,99A3.3,3.3,0,0,0,99,97.73l52.52-96A3.27,3.27,0,0,1,157.3,1.7Z"/></g></g></svg>