<svg xmlns="http://www.w3.org/2000/svg" viewBox="0 0 235.46 224.67"><defs><style>.cls-1{fill:#FDF9F8;}</style></defs><g id="Calque_2" data-name="Calque 2"><g id="Calque_1-2" data-name="Calque 1"><g id="etoile5"><path class="cls-1" d="M124.45,4.17l30.58,62a7.47,7.47,0,0,0,5.63,4.09l68.39,9.94a7.49,7.49,0,0,1,4.15,12.77l-49.49,48.23a7.49,7.49,0,0,0-2.15,6.63l11.68,68.11a7.49,7.49,0,0,1-10.86,7.89l-61.16-32.16a7.53,7.53,0,0,0-7,0L53.08,223.8a7.49,7.49,0,0,1-10.86-7.89L53.9,147.8a7.47,7.47,0,0,0-2.15-6.63L2.27,92.94A7.49,7.49,0,0,1,6.42,80.17L74.8,70.23a7.47,7.47,0,0,0,5.64-4.09L111,4.17A7.49,7.49,0,0,1,124.45,4.17Z"/></g></g></g></svg>